<svg width="1343" height="143" viewBox="0 0 1343 143" fill="none" xmlns="http://www.w3.org/2000/svg">
<path d="M0 137.929H49.0241V59.2445L105.448 137.929H163.722V3.51765H113.403V80.9057L61.4189 3.51765H0V137.929ZM191.647 137.929H247.331L252.141 124.599H309.305L313.744 137.929H369.983L315.779 3.51765H249.736L191.647 137.929ZM264.535 91.6438L281.555 44.2482L297.65 91.6438H264.535ZM424.416 137.929H476.585V37.5832H525.239V3.51765H375.947V37.5832H424.416V137.929ZM551.055 70.7231C551.055 117.193 581.394 141.446 641.333 141.446C701.272 141.446 731.612 117.193 731.612 70.7231C731.612 24.2532 701.272 0 641.333 0C581.394 0 551.055 24.2532 551.055 70.7231ZM606.924 70.7231C606.924 47.2104 618.949 34.4359 641.333 34.4359C663.718 34.4359 675.743 47.2104 675.743 70.7231C675.743 94.2357 663.718 106.825 641.333 106.825C618.949 106.825 606.924 94.2357 606.924 70.7231ZM823.88 3.51765H771.896V74.0556C771.896 120.711 797.055 141.631 851.259 141.631C905.648 141.631 930.438 121.081 930.438 74.0556V3.51765H878.454V69.242C878.454 94.606 872.719 105.159 851.259 105.159C829.8 105.159 823.88 94.606 823.88 69.242V3.51765ZM1031.19 61.6513V37.5832H1060.23C1075.4 37.5832 1083.17 39.0643 1083.17 49.247C1083.17 59.0593 1075.77 61.6513 1061.53 61.6513H1031.19ZM1080.76 3.51765H978.464V137.929H1031.19V97.0128H1062.26C1075.03 97.0128 1080.03 100.345 1081.14 110.343C1082.43 121.636 1080.58 131.449 1084.65 137.929H1142.37V135.892C1136.08 132.745 1136.08 121.636 1135.16 102.382C1134.41 87.0153 1132.75 79.6097 1118.51 73.6853C1132.38 68.3163 1140.52 55.5417 1140.52 39.6197C1140.52 26.66 1135.16 16.4774 1125.16 10.3678C1116.66 5.1839 1101.86 3.51765 1080.76 3.51765ZM1172.73 97.0128C1173.1 125.339 1199.73 142.002 1250.8 142.002C1312.4 142.002 1342 127.931 1342 94.2357C1342 72.0191 1327.38 59.2445 1297.78 54.9863L1250.43 48.1361C1236.93 46.2847 1230.45 44.6185 1230.45 38.694C1230.45 33.5102 1236.93 29.8074 1249.31 29.8074C1265.41 29.8074 1274.11 34.2507 1275.4 42.582H1335.9C1333.68 12.5895 1306.11 0 1251.53 0C1199 0 1174.21 12.4043 1174.21 43.1374C1174.21 65.7243 1190.48 79.2395 1222.68 83.1274L1261.53 87.941C1273.92 89.4221 1280.21 92.9398 1280.21 98.6791C1280.21 105.159 1273 108.306 1259.12 108.306C1244.88 108.306 1236.55 104.048 1235.63 97.0128H1172.73Z" fill="white"/>
</svg>
