<svg width="96" height="80" viewBox="0 0 96 80" fill="none" xmlns="http://www.w3.org/2000/svg">
<path d="M94.4655 36.2026L59.7966 1.53287C58.8069 0.543215 57.4879 0 56.0815 0C54.6735 0 53.3553 0.543995 52.3656 1.53287L49.2179 4.68133C48.2291 5.66942 47.6843 6.98921 47.6843 8.39642C47.6843 9.80285 48.2291 11.1671 49.2179 12.1552L69.4433 32.4251H5.1863C2.28915 32.4251 0 34.6932 0 37.5911V42.0422C0 44.9401 2.28915 47.4369 5.1863 47.4369H69.6728L49.2187 67.8199C48.2298 68.8096 47.6851 70.0935 47.6851 71.5007C47.6851 72.9063 48.2298 74.209 49.2187 75.1978L52.3664 78.3361C53.356 79.3258 54.6743 79.8651 56.0823 79.8651C57.4887 79.8651 58.8077 79.3188 59.7973 78.3291L94.4663 43.6601C95.4583 42.6674 96.0039 41.3421 96 39.9333C96.0031 38.5199 95.4583 37.1938 94.4655 36.2026Z" fill="#1E1D1D"/>
</svg>
