<svg width="64" height="64" viewBox="0 0 64 64" fill="none" xmlns="http://www.w3.org/2000/svg">
<path d="M31.5485 0C14.125 0 -0.00012207 14.2092 -0.00012207 31.7363C-0.00012207 49.2634 14.125 63.4726 31.5485 63.4726C48.972 63.4726 63.0972 49.2634 63.0972 31.7363C63.0972 14.2092 48.972 0 31.5485 0ZM31.5485 58.1832C17.029 58.1832 5.25803 46.3422 5.25803 31.7363C5.25803 17.1304 17.029 5.28942 31.5485 5.28942C46.068 5.28942 57.839 17.1304 57.839 31.7363C57.839 46.3422 46.068 58.1832 31.5485 58.1832Z" fill="white"/>
<path d="M38.6657 16.6428C37.639 15.61 35.9743 15.61 34.9476 16.6428L21.8024 29.8662C20.7757 30.899 20.7757 32.5736 21.8024 33.6064L34.9476 46.8299C35.9743 47.8627 37.639 47.8627 38.6657 46.8299C39.6923 45.7971 39.6923 44.1225 38.6657 43.0897L27.3794 31.7363L38.6657 20.3829C39.6923 19.3501 39.6923 17.6757 38.6657 16.6428Z" fill="white"/>
</svg>
