<svg width="64" height="64" viewBox="0 0 64 64" fill="none" xmlns="http://www.w3.org/2000/svg">
<path d="M31.5484 63.8955C48.9718 63.8955 63.0969 49.6863 63.0969 32.1592C63.0969 14.6321 48.9718 0.422946 31.5484 0.422944C14.125 0.422943 -0.000113974 14.6321 -0.000115498 32.1592C-0.000117021 49.6863 14.125 63.8955 31.5484 63.8955ZM31.5484 5.71237C46.0679 5.71237 57.8388 17.5533 57.8388 32.1592C57.8388 46.7651 46.0679 58.6061 31.5484 58.6061C17.0289 58.6061 5.25801 46.7651 5.25801 32.1592C5.25801 17.5533 17.0289 5.71236 31.5484 5.71237Z" fill="#474747"/>
<path d="M24.4309 47.2527C25.4576 48.2855 27.1224 48.2855 28.1491 47.2527L41.2947 34.0293C42.3214 32.9965 42.3214 31.3219 41.2947 30.2891L28.1491 17.0656C27.1224 16.0328 25.4576 16.0328 24.4309 17.0656C23.4042 18.0984 23.4042 19.773 24.4309 20.8058L35.7175 32.1592L24.4309 43.5126C23.4042 44.5454 23.4042 46.2198 24.4309 47.2527Z" fill="#474747"/>
</svg>
