<svg width="64" height="64" viewBox="0 0 64 64" fill="none" xmlns="http://www.w3.org/2000/svg">
<path d="M32.4514 63.4727C49.8749 63.4727 64 49.2635 64 31.7364C64 14.2092 49.8749 6.36076e-05 32.4514 6.20754e-05C15.028 6.05431e-05 0.90284 14.2092 0.902839 31.7364C0.902837 49.2635 15.028 63.4727 32.4514 63.4727ZM32.4514 5.28948C46.9709 5.28948 58.7419 17.1305 58.7419 31.7364C58.7419 46.3422 46.9709 58.1832 32.4514 58.1832C17.9319 58.1832 6.16097 46.3422 6.16098 31.7364C6.16098 17.1305 17.9319 5.28948 32.4514 5.28948Z" fill="white"/>
<path d="M25.3342 46.8299C26.3609 47.8627 28.0256 47.8627 29.0523 46.8299L42.1978 33.6064C43.2244 32.5736 43.2244 30.899 42.1978 29.8662L29.0523 16.6428C28.0256 15.61 26.3609 15.61 25.3342 16.6428C24.3075 17.6756 24.3075 19.3501 25.3342 20.3829L36.6206 31.7363L25.3342 43.0897C24.3075 44.1225 24.3075 45.797 25.3342 46.8299Z" fill="white"/>
</svg>
